<svg width="311" height="175" viewBox="0 0 311 175" fill="none" xmlns="http://www.w3.org/2000/svg">
<mask id="path-1-inside-1" fill="white">
<path fill-rule="evenodd" clip-rule="evenodd" d="M0 0H311V175H0V0ZM185 45C185 61.5685 171.569 75 155 75C138.431 75 125 61.5685 125 45C125 28.4315 138.431 15 155 15C171.569 15 185 28.4315 185 45ZM200.401 102.185C212.31 114.468 219 131.128 219 148.5H155.5L92 148.5C92 131.128 98.6902 114.468 110.599 102.185C122.507 89.9009 138.659 83 155.5 83C172.341 83 188.493 89.9009 200.401 102.185Z"/>
</mask>
<path fill-rule="evenodd" clip-rule="evenodd" d="M0 0H311V175H0V0ZM185 45C185 61.5685 171.569 75 155 75C138.431 75 125 61.5685 125 45C125 28.4315 138.431 15 155 15C171.569 15 185 28.4315 185 45ZM200.401 102.185C212.31 114.468 219 131.128 219 148.5H155.5L92 148.5C92 131.128 98.6902 114.468 110.599 102.185C122.507 89.9009 138.659 83 155.5 83C172.341 83 188.493 89.9009 200.401 102.185Z" fill="#ABACAC"/>
<path d="M311 0H312V-1H311V0ZM0 0V-1H-1V0H0ZM311 175V176H312V175H311ZM0 175H-1V176H0V175ZM219 148.5V149.5H220V148.5H219ZM200.401 102.185L199.683 102.881L199.683 102.881L200.401 102.185ZM155.5 148.5L155.5 149.5H155.5V148.5ZM92 148.5H91V149.5L92 149.5L92 148.5ZM311 -1H0V1H311V-1ZM312 175V0H310V175H312ZM0 176H311V174H0V176ZM-1 0V175H1V0H-1ZM155 76C172.121 76 186 62.1208 186 45H184C184 61.0163 171.016 74 155 74V76ZM124 45C124 62.1208 137.879 76 155 76V74C138.984 74 126 61.0163 126 45H124ZM155 14C137.879 14 124 27.8792 124 45H126C126 28.9837 138.984 16 155 16V14ZM186 45C186 27.8792 172.121 14 155 14V16C171.016 16 184 28.9837 184 45H186ZM220 148.5C220 130.873 213.212 113.962 201.119 101.488L199.683 102.881C211.408 114.974 218 131.384 218 148.5H220ZM155.5 149.5H219V147.5H155.5V149.5ZM92 149.5L155.5 149.5L155.5 147.5L92 147.5L92 149.5ZM109.881 101.488C97.7882 113.962 91 130.873 91 148.5H93C93 131.384 99.5921 114.974 111.317 102.881L109.881 101.488ZM155.5 82C138.383 82 121.974 89.014 109.881 101.488L111.317 102.881C123.04 90.7877 138.934 84 155.5 84V82ZM201.119 101.488C189.026 89.014 172.617 82 155.5 82V84C172.066 84 187.96 90.7877 199.683 102.881L201.119 101.488Z" fill="#AAABAC" mask="url(#path-1-inside-1)"/>
</svg>
